<?xml version="1.0" encoding="UTF-8" standalone="no"?>
<svg
   xmlns:dc="http://purl.org/dc/elements/1.1/"
   xmlns:cc="http://creativecommons.org/ns#"
   xmlns:rdf="http://www.w3.org/1999/02/22-rdf-syntax-ns#"
   xmlns:svg="http://www.w3.org/2000/svg"
   xmlns="http://www.w3.org/2000/svg"
   xmlns:sodipodi="http://sodipodi.sourceforge.net/DTD/sodipodi-0.dtd"
   xmlns:inkscape="http://www.inkscape.org/namespaces/inkscape"
   width="23.5114mm"
   height="33.06604mm"
   viewBox="0 0 23.5114 33.06604"
   version="1.1"
   id="svg8"
   inkscape:version="1.0.2 (e86c8708, 2021-01-15)"
   sodipodi:docname="html5.svg">
  <defs
     id="defs2" />
  <sodipodi:namedview
     id="base"
     pagecolor="#ffffff"
     bordercolor="#666666"
     borderopacity="1.0"
     inkscape:pageopacity="0.0"
     inkscape:pageshadow="2"
     inkscape:zoom="1.3526328"
     inkscape:cx="19.648688"
     inkscape:cy="100.27076"
     inkscape:document-units="mm"
     inkscape:current-layer="layer1"
     inkscape:document-rotation="0"
     showgrid="false"
     inkscape:window-width="1147"
     inkscape:window-height="580"
     inkscape:window-x="0"
     inkscape:window-y="25"
     inkscape:window-maximized="0"
     fit-margin-top="0"
     fit-margin-left="0"
     fit-margin-right="0"
     fit-margin-bottom="0" />
  <metadata
     id="metadata5">
    <rdf:RDF>
      <cc:Work
         rdf:about="">
        <dc:format>image/svg+xml</dc:format>
        <dc:type
           rdf:resource="http://purl.org/dc/dcmitype/StillImage" />
        <dc:title></dc:title>
      </cc:Work>
    </rdf:RDF>
  </metadata>
  <g
     inkscape:label="Layer 1"
     inkscape:groupmode="layer"
     id="layer1"
     transform="translate(-68.375253,-85.52055)">
    <path
       fill="#03599c"
       d="m 68.375253,92.23382 2.13968,23.79107 9.60147,2.5617 9.62819,-2.51328 2.14206,-23.83949 z m 19.06085,5.41629 -0.13415,1.54358 -0.059,0.71305 h -11.26305 l 0.26908,3.175 h 10.72621 l -0.0717,0.59029 -0.69188,7.64884 -0.0508,0.44714 -6.02986,1.62296 v -10e-4 l -0.007,0.003 -6.02646,-1.56533 -0.40904,-4.51247 h 2.95486 l 0.20929,2.23838 3.27686,0.83053 0.002,-0.0619 v 0.003 l 3.28401,-0.70089 0.3429,-3.6322 h -10.20102 l -0.72337,-8.15871 -0.0707,-0.83715 h 14.74364 z M 70.594313,85.52055 h 1.48749 v 1.47003 h 1.36101 v -1.47003 h 1.48775 v 4.45082 h -1.48775 v -1.4904 h -1.36075 v 1.4904 h -1.48775 z m 6.29232,1.47611 h -1.30969 v -1.47611 h 4.10766 v 1.47611 h -1.31022 v 2.97471 h -1.48775 z m 3.4499,-1.47611 h 1.55099 l 0.95435,1.56395 0.95329,-1.56395 h 1.55179 v 4.45082 h -1.48194 v -2.20609 l -1.02314,1.58247 h -0.0259 l -1.02394,-1.58247 v 2.20609 h -1.45573 v -4.45082 z m 5.75098,0 h 1.48802 v 2.97974 h 2.09206 v 1.47135 h -3.58008 z"
       id="path10"
       style="fill:#535353;fill-opacity:1;stroke-width:0.264583" />
  </g>
</svg>
