<?xml version="1.0" encoding="UTF-8" standalone="no"?>
<svg
   xmlns:dc="http://purl.org/dc/elements/1.1/"
   xmlns:cc="http://creativecommons.org/ns#"
   xmlns:rdf="http://www.w3.org/1999/02/22-rdf-syntax-ns#"
   xmlns:svg="http://www.w3.org/2000/svg"
   xmlns="http://www.w3.org/2000/svg"
   xmlns:sodipodi="http://sodipodi.sourceforge.net/DTD/sodipodi-0.dtd"
   xmlns:inkscape="http://www.inkscape.org/namespaces/inkscape"
   width="128px"
   height="128px"
   viewBox="0 0 128 128"
   version="1.1"
   id="svg952"
   sodipodi:docname="jupyter-plain-wordmark.svg"
   inkscape:version="1.0.2 (e86c8708, 2021-01-15)">
  <metadata
     id="metadata958">
    <rdf:RDF>
      <cc:Work
         rdf:about="">
        <dc:format>image/svg+xml</dc:format>
        <dc:type
           rdf:resource="http://purl.org/dc/dcmitype/StillImage" />
      </cc:Work>
    </rdf:RDF>
  </metadata>
  <defs
     id="defs956" />
  <sodipodi:namedview
     pagecolor="#ffffff"
     bordercolor="#666666"
     borderopacity="1"
     objecttolerance="10"
     gridtolerance="10"
     guidetolerance="10"
     inkscape:pageopacity="0"
     inkscape:pageshadow="2"
     inkscape:window-width="820"
     inkscape:window-height="480"
     id="namedview954"
     showgrid="false"
     inkscape:zoom="2.007208"
     inkscape:cx="-37.925389"
     inkscape:cy="67.265379"
     inkscape:window-x="0"
     inkscape:window-y="25"
     inkscape:window-maximized="0"
     inkscape:current-layer="svg952" />
  <g
     id="surface1"
     style="fill:#535353;fill-opacity:1">
    <path
       style="fill:#535353;fill-opacity:1;fill-rule:evenodd;stroke:none"
       d="m 5.429688,67.058594 c 0,3.882812 -0.386719,5.148437 -1.386719,6.078125 C 2.9375,73.9375 1.496094,74.378906 0,74.378906 l 0.386719,2.21875 c 2.316406,0.02344 4.5625,-0.632812 6.320312,-1.839844 C 7.648438,73.832031 8.351562,72.769531 8.769531,71.625 9.1875,70.484375 9.3125,69.285156 9.140625,68.101562 V 53.417969 H 5.429688 Z m 0,0"
       id="path927" />
    <path
       style="fill:#535353;fill-opacity:1;fill-rule:evenodd;stroke:none"
       d="m 31.589844,64.890625 c 0,1.609375 0,3.042969 0.152344,4.289063 H 28.621094 L 28.410156,66.625 c -0.65625,0.90625 -1.589844,1.652344 -2.710937,2.160156 -1.117188,0.511719 -2.386719,0.777344 -3.667969,0.757813 -3.046875,0 -6.671875,-1.351563 -6.671875,-6.859375 v -9.15625 h 3.519531 v 8.574218 c 0,2.980469 1.132813,4.972657 4.304688,4.972657 0.65625,0.0078 1.304687,-0.09375 1.910156,-0.292969 0.601562,-0.203125 1.152344,-0.5 1.617188,-0.878906 0.464843,-0.378906 0.828124,-0.828125 1.070312,-1.320313 0.25,-0.492187 0.375,-1.019531 0.367188,-1.558593 v -9.605469 h 3.515624 v 11.386719 z m 0,0"
       id="path929" />
    <path
       style="fill:#535353;fill-opacity:1;fill-rule:evenodd;stroke:none"
       d="m 39.070312,58.300781 c 0,-2.144531 0,-3.902343 -0.160156,-5.488281 h 3.164063 l 0.15625,2.882812 c 0.703125,-1.046874 1.71875,-1.898437 2.933593,-2.476562 1.214844,-0.578125 2.585938,-0.855469 3.964844,-0.804688 4.6875,0 8.214844,3.441407 8.214844,8.5625 0,6.046876 -4.238281,9.046876 -8.820312,9.046876 -1.171876,0.04297 -2.339844,-0.171876 -3.386719,-0.640626 -1.046875,-0.464843 -1.9375,-1.160156 -2.589844,-2.011718 v 9.226562 h -3.476563 z m 3.476563,4.496094 c 0.0078,0.421875 0.0625,0.839844 0.15625,1.25 0.300781,1.023437 0.980469,1.929687 1.933594,2.578125 0.953125,0.652344 2.128906,1 3.335937,1 3.710938,0 5.894532,-2.65625 5.894532,-6.507812 0,-3.367188 -2.050782,-6.253907 -5.765626,-6.253907 -1.46875,0.105469 -2.84375,0.675781 -3.867187,1.605469 -1.019531,0.933594 -1.625,2.15625 -1.6875,3.445312 z m 0,0"
       id="path931" />
    <path
       style="fill:#535353;fill-opacity:1;fill-rule:evenodd;stroke:none"
       d="m 63.34375,53.460938 4.304688,9.382812 c 0.449218,1.046875 0.933593,2.304688 1.25,3.242188 0.375,-0.957032 0.777343,-2.175782 1.257812,-3.308594 l 3.902344,-9.316406 h 3.765625 l -5.34375,11.320312 c -2.671875,5.4375 -4.300781,8.25 -6.757813,9.945312 -1.238281,0.925782 -2.75,1.566407 -4.382812,1.871094 l -0.878906,-2.433594 c 1.144531,-0.308593 2.203124,-0.789062 3.125,-1.417968 1.300781,-0.867188 2.335937,-1.96875 3.019531,-3.222656 C 66.75,69.308594 66.851562,69.070312 66.898438,68.828125 66.863281,68.566406 66.785156,68.3125 66.65625,68.066406 L 59.390625,53.417969 h 3.902344 z m 0,0"
       id="path933" />
    <path
       style="fill:#535353;fill-opacity:1;fill-rule:evenodd;stroke:none"
       d="m 87.222656,48.378906 v 4.652344 h 4.9375 v 2.214844 h -4.9375 v 8.730468 c 0,1.996094 0.671875,3.144532 2.570313,3.144532 0.679687,0.0078 1.351562,-0.05859 2.007812,-0.203125 l 0.152344,2.222656 c -0.980469,0.289063 -2.019531,0.425781 -3.058594,0.394531 -0.6875,0.03906 -1.378906,-0.05469 -2.019531,-0.269531 -0.644531,-0.210937 -1.226562,-0.542969 -1.707031,-0.96875 -1.046875,-1.210937 -1.527344,-2.714844 -1.339844,-4.210937 v -8.863282 h -2.933594 v -2.214844 h 2.984375 V 49.0625 Z m 0,0"
       id="path935" />
    <path
       style="fill:#535353;fill-opacity:1;fill-rule:evenodd;stroke:none"
       d="m 98.789062,61.441406 c -0.07422,0.761719 0.05078,1.527344 0.367188,2.242188 0.320312,0.71875 0.816406,1.371094 1.46484,1.90625 0.64844,0.542968 1.42579,0.960937 2.28516,1.222656 0.85547,0.265625 1.77734,0.371094 2.6875,0.308594 1.84375,0.03516 3.67969,-0.253906 5.37891,-0.855469 l 0.62109,2.246094 c -2.08984,0.71875 -4.33203,1.066406 -6.58984,1.015625 -1.31641,0.07422 -2.63672,-0.09375 -3.8711,-0.480469 -1.230466,-0.390625 -2.347654,-1 -3.273435,-1.785156 -0.925781,-0.785157 -1.636719,-1.730469 -2.085937,-2.765625 -0.445313,-1.035156 -0.621094,-2.140625 -0.507813,-3.234375 0,-4.945313 3.523437,-8.851563 9.281255,-8.851563 6.45312,0 8.07031,4.714844 8.07031,7.726563 0.0312,0.464843 0.0312,0.925781 0,1.390625 H 98.707031 Z m 10.542968,-2.246094 c 0.10547,-0.601562 0.0547,-1.214843 -0.14844,-1.800781 -0.20312,-0.578125 -0.55859,-1.117187 -1.03125,-1.578125 -0.47656,-0.457031 -1.05859,-0.832031 -1.71875,-1.082031 -0.66015,-0.253906 -1.375,-0.390625 -2.10156,-0.394531 -1.47656,0.08984 -2.86328,0.636718 -3.88281,1.535156 -1.023439,0.898438 -1.60547,2.078125 -1.632814,3.320312 z m 0,0"
       id="path937" />
    <path
       style="fill:#535353;fill-opacity:1;fill-rule:evenodd;stroke:none"
       d="m 117.91406,58.054688 c 0,-1.96875 0,-3.667969 -0.15234,-5.230469 h 3.03906 v 3.28125 h 0.14844 c 0.32031,-1.011719 0.98047,-1.910157 1.88281,-2.566407 0.91016,-0.65625 2.01953,-1.042968 3.1836,-1.101562 0.3164,-0.03906 0.64062,-0.03906 0.96093,0 v 2.867188 c -0.39062,-0.04297 -0.77734,-0.04297 -1.16406,0 -1.14844,0.03906 -2.24609,0.453124 -3.07812,1.171874 -0.83594,0.71875 -1.35157,1.6875 -1.45313,2.722657 -0.0977,0.472656 -0.14453,0.945312 -0.15625,1.421875 v 8.921875 h -3.33984 V 58.078125 Z m 0,0"
       id="path939" />
    <path
       style="fill:#535353;fill-opacity:1;fill-rule:evenodd;stroke:none"
       d="m 109.76563,7.28125 c 0.0625,1.503906 -0.31641,2.996094 -1.08985,4.28125 -0.77344,1.285156 -1.91015,2.3125 -3.26172,2.949219 -1.35547,0.636719 -2.87109,0.851562 -4.33984,0.621093 C 99.59375,14.902344 98.21875,14.234375 97.121094,13.21875 96.019531,12.199219 95.246094,10.875 94.890625,9.414062 94.539062,7.953125 94.625,6.417969 95.136719,5 95.644531,3.589844 96.5625,2.359375 97.765625,1.46875 98.96875,0.582031 100.41016,0.0703125 101.90234,0.0078125 c 1.9961,-0.0859375 3.94922,0.6328125 5.42188,1.9960935 1.47656,1.367188 2.35156,3.261719 2.4375,5.273438 z m 0,0"
       id="path941" />
    <path
       style="fill:#535353;fill-opacity:1;fill-rule:evenodd;stroke:none"
       d="m 65.757812,96.789062 c -20.097656,0 -37.648437,-7.363281 -46.765624,-18.265624 3.394531,9.78125 9.71875,18.253906 18.101562,24.253902 8.382812,6 18.402344,9.21485 28.675781,9.21485 10.273438,0 20.292969,-3.21875 28.675781,-9.21485 8.378908,-5.99609 14.703128,-14.472652 18.093748,-24.253902 -9.13281,10.902343 -26.683591,18.265624 -46.781248,18.265624 z m 0,0"
       id="path943" />
    <path
       style="fill:#535353;fill-opacity:1;fill-rule:evenodd;stroke:none"
       d="m 65.75,25.882812 c 20.097656,0 37.65234,7.367188 46.76563,18.265626 -3.39454,-9.78125 -9.71875,-18.253907 -18.101568,-24.253907 -8.382812,-5.996093 -18.398437,-9.21875 -28.671874,-9.21875 -10.269532,0 -20.292969,3.222657 -28.671876,9.21875 C 28.6875,25.890625 22.359375,34.367188 18.96875,44.148438 28.101562,33.269531 45.652344,25.882812 65.75,25.882812 Z m 0,0"
       id="path945" />
    <path
       style="fill:#535353;fill-opacity:1;fill-rule:evenodd;stroke:none"
       d="m 38.164062,117.98438 c 0.08203,1.89453 -0.394531,3.77343 -1.371093,5.39843 -0.980469,1.625 -2.40625,2.92188 -4.117188,3.71875 -1.710937,0.80078 -3.585937,1.07422 -5.472656,0.78516 -1.886719,-0.29297 -3.59375,-1.13281 -4.980469,-2.41797 -1.382812,-1.28516 -2.359375,-2.95312 -2.808594,-4.79687 -0.441406,-1.84766 -0.332031,-3.78125 0.3125,-5.56641 0.648438,-1.78125 1.804688,-3.32813 3.328126,-4.45313 1.523437,-1.125 3.335937,-1.75781 5.214843,-1.83203 2.519531,-0.10547 4.96875,0.80078 6.828125,2.51953 1.855469,1.72657 2.960938,4.11329 3.066406,6.64844 z m 0,0"
       id="path947" />
    <path
       style="fill:#535353;fill-opacity:1;fill-rule:evenodd;stroke:none"
       d="m 21.285156,23.417969 c -1.101562,0.05078 -2.199218,-0.238281 -3.140625,-0.816407 -0.945312,-0.578124 -1.699219,-1.429687 -2.164062,-2.433593 -0.46875,-1.007813 -0.621094,-2.136719 -0.453125,-3.238281 0.167968,-1.101563 0.65625,-2.132813 1.40625,-2.949219 0.746094,-0.820313 1.71875,-1.398438 2.789062,-1.664063 1.070313,-0.269531 2.203125,-0.203125 3.238282,0.183594 1.039062,0.382812 1.9375,1.066406 2.585937,1.96875 1.570313,2.171875 1.40625,5.148438 -0.398437,7.128906 -1,1.101563 -2.390626,1.753906 -3.867188,1.820313 z m 0,0"
       id="path949" />
  </g>
</svg>
