<?xml version="1.0" encoding="UTF-8" standalone="no"?>
<svg
   xmlns:dc="http://purl.org/dc/elements/1.1/"
   xmlns:cc="http://creativecommons.org/ns#"
   xmlns:rdf="http://www.w3.org/1999/02/22-rdf-syntax-ns#"
   xmlns:svg="http://www.w3.org/2000/svg"
   xmlns="http://www.w3.org/2000/svg"
   xmlns:sodipodi="http://sodipodi.sourceforge.net/DTD/sodipodi-0.dtd"
   xmlns:inkscape="http://www.inkscape.org/namespaces/inkscape"
   width="2500"
   height="2500"
   viewBox="0 0 192.756 192.756"
   version="1.1"
   id="svg845"
   sodipodi:docname="solidworks.svg"
   inkscape:version="1.0.2 (e86c8708, 2021-01-15)">
  <sodipodi:namedview
     pagecolor="#ffffff"
     bordercolor="#666666"
     borderopacity="1"
     objecttolerance="10"
     gridtolerance="10"
     guidetolerance="10"
     inkscape:pageopacity="0"
     inkscape:pageshadow="2"
     inkscape:window-width="1740"
     inkscape:window-height="842"
     id="namedview1583"
     showgrid="false"
     inkscape:zoom="0.21576211"
     inkscape:cx="618.19761"
     inkscape:cy="1312.8702"
     inkscape:window-x="0"
     inkscape:window-y="25"
     inkscape:window-maximized="0"
     inkscape:current-layer="svg845" />
  <metadata
     id="metadata851">
    <rdf:RDF>
      <cc:Work
         rdf:about="">
        <dc:format>image/svg+xml</dc:format>
        <dc:type
           rdf:resource="http://purl.org/dc/dcmitype/StillImage" />
        <dc:title />
      </cc:Work>
    </rdf:RDF>
  </metadata>
  <defs
     id="defs849">
    <clipPath
       clipPathUnits="userSpaceOnUse"
       id="clipPath2156">
      <rect
         style="opacity:0.273312;fill:#6666a2;fill-opacity:0.54251;fill-rule:evenodd;stroke-width:0.266994"
         id="rect2158"
         width="166.85339"
         height="104.27157"
         x="13.565639"
         y="40.947117" />
    </clipPath>
  </defs>
  <g
     fill-rule="evenodd"
     clip-rule="evenodd"
     id="g843"
     transform="matrix(1.1547011,0,0,1.8441769,-15.160878,-74.89148)"
     style="fill:#666666"
     clip-path="url(#clipPath2156)">
    <path
       fill="#ffffff"
       fill-opacity="0"
       d="M 0,0 H 192.756 V 192.756 H 0 Z"
       id="path833"
       style="fill:#666666" />
    <path
       d="m 42.771,133.955 v 1.823 c 0,1.475 0.487,2.78 2.402,2.78 1.408,0 2.024,-1.271 2.024,-2.577 0,-2.159 -1.782,-2.979 -3.357,-3.945 -1.859,-1.062 -3.433,-2.057 -4.56,-3.357 -1.106,-1.312 -1.758,-2.886 -1.758,-5.154 0,-4.832 2.917,-7.305 7.583,-7.305 5.255,0 7.929,3.5 7.65,8.332 h -5.558 c -0.07,-1.504 0,-3.562 -1.99,-3.7 -1.232,-0.104 -1.949,0.588 -2.091,1.714 -0.174,1.545 0.621,2.335 1.818,3.157 2.262,1.444 4.217,2.335 5.629,3.635 1.404,1.31 2.226,3.024 2.226,6.146 0,4.938 -2.744,7.682 -7.752,7.682 -5.528,0 -7.852,-3.083 -7.852,-6.481 v -2.748 h 5.586 z m 11.751,-4.557 c 0,-4.944 2.92,-6.591 7.134,-6.591 4.806,0 7.135,2.26 7.135,6.591 v 7.817 c -0.279,4.356 -2.983,5.969 -7.135,5.969 -3.912,0 -7.134,-1.576 -7.134,-5.969 z m 5.459,8.162 c 0.099,1.099 0.549,1.681 1.675,1.681 1.133,0 1.575,-0.582 1.683,-1.681 v -8.58 c 0,-1.229 -0.413,-2.229 -1.683,-2.229 -1.269,0 -1.675,1 -1.675,2.229 z m 10.936,-20.718 h 5.459 v 25.718 h -5.459 z m 8.175,6.512 h 5.436 v 19.205 h -5.436 z m 0,-11.154 h 5.436 v 4.633 h -5.436 z m 16.954,30.362 v -2.224 h -0.064 c -1,1.856 -2.645,2.847 -4.254,2.847 -3.98,-0.138 -4.772,-3.875 -4.772,-7.136 v -6.65 c 0,-3.021 1.065,-6.591 4.669,-6.591 1.444,0 2.842,0.618 3.971,2.299 h 0.073 v -8.265 h 5.458 v 25.72 z m -3.634,-6.926 c 0,1.137 0,3.09 1.574,3.09 1.475,0 1.683,-1.473 1.683,-3.33 v -4.527 c 0,-1.646 -0.244,-3.637 -1.582,-3.596 -1.741,0 -1.675,2.162 -1.675,3.395 z m 18.971,6.926 h -3.537 l -5.482,-25.72 h 3.154 l 3.354,17.735 c 0.311,1.746 0.555,3.53 0.766,5.93 h 0.062 c 0.24,-1.985 0.445,-3.873 0.826,-5.726 l 3.771,-17.939 h 3.527 l 3.408,17.735 c 0.297,1.714 0.502,3.427 0.744,5.93 h 0.074 c 0.234,-1.985 0.441,-3.873 0.824,-5.726 l 3.732,-17.939 h 3.162 l -6.039,25.72 h -3.531 l -3.428,-17.455 c -0.342,-1.681 -0.545,-3.395 -0.758,-6.209 h -0.07 c -0.234,2.474 -0.445,4.352 -0.82,6.209 z m 24.428,0.519 c -4.111,0 -6.82,-2.471 -6.82,-10.699 0,-5.771 2.123,-9.404 6.82,-9.404 4.703,0 6.834,3.634 6.834,9.404 0,8.261 -2.647,10.699 -6.834,10.699 z m 0,-17.803 c -2.77,0 -4.01,2.189 -4.01,7.962 0,4.491 0.857,7.546 4.01,7.546 3.223,0 4.012,-3.055 4.012,-7.546 -0.001,-5.772 -1.159,-7.962 -4.012,-7.962 z m 11.96,1.333 h 0.07 c 1.129,-2.501 2.746,-3.563 5.584,-3.316 v 2.672 c -3.496,-0.62 -5.557,1.574 -5.557,5.036 v 11.559 h -2.709 v -19.064 h 2.611 v 3.113 z m 7.602,15.951 v -25.72 h 2.703 v 15.54 l 6.586,-8.885 h 3.225 l -5.891,7.407 6.065,11.658 h -3.153 l -4.775,-9.496 -2.057,2.712 v 6.784 z m 21.781,-13.955 c 0.107,-2.267 -0.709,-3.329 -3.018,-3.329 -1.92,0 -3.018,0.896 -3.018,2.885 0,2.463 2.025,2.778 3.883,3.562 2.736,1.242 5.484,1.923 5.484,5.49 0,3.637 -2.537,5.903 -6.455,5.865 -1.68,0.038 -3.73,-0.545 -4.732,-1.988 -1.129,-1.507 -1.064,-2.777 -1.064,-4.083 h 2.58 c -0.1,2.334 0.686,3.776 3.217,3.776 2.207,0 3.645,-0.896 3.645,-3.227 0,-2.707 -2.746,-2.949 -4.701,-3.776 -2.949,-1.093 -4.666,-2.089 -4.666,-5.412 0,-3.304 2.301,-5.394 5.594,-5.394 3.773,0 5.965,1.724 5.896,5.63 h -2.645 z"
       fill="#c9222f"
       id="path835"
       style="fill:#666666" />
    <path
       d="m 48.571,78.51 c -10.208,-3.019 -21.334,-0.395 -23.032,0.055 -2.57,0.681 -4.075,1.368 -3.97,2.172 0.08,0.595 0.736,1.005 3.894,0.926 7.527,-0.183 13.763,0.073 17.705,1.176 4.882,1.363 5.483,3.877 3.065,8.817 -1.118,2.282 -2.771,4.641 -5.274,7.148 -4.998,5.015 -11.245,8.277 -14.764,10.06 -3.421,1.736 -4.673,0.813 -4.293,-0.899 0.468,-2.097 10.175,-18.896 10.175,-18.896 0.73,-1.275 0.859,-2.473 0,-2.831 -0.736,-0.313 -2.07,0.721 -3.456,2.324 -5.666,6.58 -16.116,26.601 -16.31,27.257 -0.191,0.629 0.301,0.709 0.488,0.713 4.424,-0.034 31.584,-8.067 40.347,-24.485 4.618,-8.645 2.282,-11.506 -4.575,-13.537 z"
       fill="#423a90"
       id="path837"
       style="fill:#666666" />
    <path
       d="m 62.1,70.613 c -5.484,4.743 2.649,12.556 6.472,17.034 3.724,4.354 8.229,9.882 8.439,11.779 0.097,0.87 -0.077,1.859 -1.12,2.506 -1.703,1.062 -8.735,2.091 -23.284,2.078 -3.158,-0.002 -3.802,0.305 -3.881,0.871 -0.045,0.296 -0.142,0.981 3.873,1.99 0.11,0.03 16.674,3.076 25.507,0 9.025,-3.078 6.754,-8.277 5.135,-11.279 -2.492,-4.626 -13.995,-18.074 -14.943,-19.901 -0.887,-1.712 0.406,-2.462 0.406,-2.462 0,0 1.924,-2.314 17.26,-2.181 3.16,0.023 3.816,-0.308 3.89,-0.876 0.062,-0.47 -0.839,-1.492 -3.845,-2.136 C 83.173,67.428 68.677,64.927 62.1,70.613 Z"
       fill="#df9f38"
       id="path839"
       style="fill:#666666" />
    <path
       d="m 42.318,42.685 c -1.224,0.358 -3.688,1.037 -3.48,1.937 0.133,0.576 0.622,0.85 3.486,0.848 6.404,-0.008 11.383,0.408 14.792,1.02 6.934,1.252 5.3,4.751 3.329,8.101 C 55.665,62.742 42.75,71.914 42,72.433 41.015,73.111 41.554,73.505 42.415,73.186 52.886,69.291 63.437,62.575 67.699,54.415 71.314,47.494 68.722,44.212 63.212,42.664 53.375,39.896 43.177,42.432 42.318,42.685 Z"
       fill="#c9222f"
       id="path841"
       style="fill:#666666" />
  </g>
</svg>
