<?xml version="1.0" encoding="UTF-8" standalone="no"?>
<svg
   xmlns:dc="http://purl.org/dc/elements/1.1/"
   xmlns:cc="http://creativecommons.org/ns#"
   xmlns:rdf="http://www.w3.org/1999/02/22-rdf-syntax-ns#"
   xmlns:svg="http://www.w3.org/2000/svg"
   xmlns="http://www.w3.org/2000/svg"
   xmlns:sodipodi="http://sodipodi.sourceforge.net/DTD/sodipodi-0.dtd"
   xmlns:inkscape="http://www.inkscape.org/namespaces/inkscape"
   width="538.40009"
   height="152.73222"
   viewBox="0 0 835.33598 236.9664"
   version="1.1"
   id="svg2184"
   sodipodi:docname="20210216184933!Trello_logo.svg.2021_04_28_20_55_42.0.svg"
   inkscape:version="1.0.2 (e86c8708, 2021-01-15)">
  <g
     id="g914"
     transform="translate(-50,-1)">
    <g
       id="Page-1"
       stroke="none"
       stroke-width="1"
       fill="none"
       fill-rule="evenodd"
       style="fill:#535353;fill-opacity:1">
      <g
         id="Logos"
         transform="translate(-509,-485)"
         style="fill:#535353;fill-opacity:1">
        <g
           id="Group"
           transform="translate(-9,1)"
           style="fill:#535353;fill-opacity:1">
          <g
             id="Trello-Logo"
             transform="translate(468)"
             style="fill:#535353;fill-opacity:1">
            <g
               id="Trello-Logo---Blue---Flat"
               transform="translate(0,420)"
               style="fill:#535353;fill-opacity:1">
              <g
                 id="Logo"
                 transform="translate(50,64)"
                 style="fill:#535353;fill-opacity:1">
                <g
                   transform="translate(50,1)"
                   id="g2176"
                   style="fill:#535353;fill-opacity:1">
                  <path
                     d="m 673.29354,177.58952 c -12.77067,5.20363 -22.84826,23.18136 -38.17514,33.39928 -0.9504,0.6336 -1.9008,0.9504 -2.5344,0.9504 -1.2672,0 -2.8512,-1.2672 -2.8512,-6.9696 0,-19.6416 6.336,-29.1456 11.7216,-43.0848 18.6912,-48.4704 50.688,-89.9712 79.2,-135.2736 2.2176,-3.4848 3.4848,-7.2864 3.4848,-11.4048 0,-3.4848 -1.2672,-6.336 -2.8512,-9.8208 C 720.0208,2.5344 714.3184,0 707.9824,0 c -3.4848,0 -6.6528,0.3168 -10.7712,0.3168 -14.8896,0 -18.0576,21.8592 -21.5424,27.5616 -23.76,40.2336 -51.0048,89.9712 -64.944,125.136 -3.0567,7.88306 -6.35849,15.76613 -8.86817,23.85663 -13.77475,3.9888 -24.09418,23.35667 -40.23583,34.11777 -0.9504,0.6336 -1.9008,0.9504 -2.5344,0.9504 -1.2672,0 -2.8512,-1.2672 -2.8512,-6.9696 0,-19.6416 6.336,-29.1456 11.7216,-43.0848 18.6912,-48.4704 50.688,-89.9712 79.2,-135.2736 2.2176,-3.4848 3.4848,-7.2864 3.4848,-11.4048 0,-3.4848 -1.2672,-6.336 -2.8512,-9.8208 C 646.5232,2.5344 640.8208,0 634.4848,0 631,0 627.832,0.3168 623.7136,0.3168 c -14.8896,0 -18.0576,21.8592 -21.5424,27.5616 -23.76,40.2336 -51.0048,89.9712 -64.944,125.136 -1.10816,2.85789 -2.24854,5.71578 -3.3717,8.58356 -0.34684,0.18526 -0.70102,0.38615 -1.0635,0.60364 -16.1568,9.504 -29.7792,26.2944 -49.4208,37.6992 -3.8016,2.2176 -15.5232,10.4544 -25.0272,10.4544 -2.2176,0 -4.1184,-0.6336 -6.0192,-1.584 -2.8512,-1.2672 -5.7024,-7.2864 -5.7024,-9.1872 0,-1.584 0.3168,-1.9008 3.4848,-3.8016 27.8784,-16.7904 50.688,-40.8672 70.3296,-64.944 7.2864,-8.8704 16.7904,-26.2944 16.7904,-38.9664 0,-8.2368 -2.8512,-17.7408 -12.672,-21.2256 -6.9696,-2.5344 -14.8896,-3.8016 -21.2256,-3.8016 -16.7904,0 -29.1456,7.6032 -36.1152,14.8896 -7.09544,7.57486 -13.95871,15.352865 -20.33509,23.40428 C 440.217,99.38685 430.8199,96.9408 421.912,96.9408 c -10.4544,0 -30.096,12.9888 -40.2336,20.592 -1.584,1.2672 -2.5344,1.9008 -3.168,1.9008 -0.3168,0 -0.6336,-0.3168 -0.6336,-0.9504 0,-0.3168 0.6336,-3.168 0.6336,-8.2368 0,-4.4352 -0.9504,-10.1376 -5.0688,-17.1072 -0.9504,-1.584 -6.6528,-5.0688 -13.6224,-5.0688 -8.5536,0 -16.4736,4.1184 -16.4736,8.5536 0,3.168 2.8512,4.4352 2.8512,7.2864 0,1.584 -1.2672,8.8704 -3.168,15.84 -5.3856,20.2752 -12.0384,40.2336 -19.008,60.192 -3.8016,11.088 -16.4736,20.9088 -16.4736,32.9472 0,3.8016 2.5344,8.8704 6.0192,12.672 5.7024,6.336 9.1872,8.5536 14.256,8.5536 2.2176,0 4.752,-0.6336 6.9696,-2.5344 4.752,-4.1184 7.2864,-8.2368 8.5536,-13.9392 8.2368,-37.3824 31.9968,-62.7264 58.2912,-79.5168 8.8704,-5.7024 20.9088,-11.7216 22.4928,-11.7216 1.62424,0 4.1645,0.74948 6.72419,1.47991 -7.35027,11.98886 -13.30585,24.63228 -17.17859,38.12009 -1.2672,4.4352 -1.9008,8.5536 -1.9008,12.9888 0,7.2864 1.584,14.8896 4.1184,22.176 3.4848,10.1376 9.1872,19.008 17.1072,23.1264 14.5728,7.6032 25.0272,11.7216 34.5312,11.7216 5.3856,0 9.504,-0.9504 13.9392,-3.4848 20.82227,-11.78102 33.58848,-20.71873 42.80676,-28.65735 0.25276,8.04907 1.83941,12.50846 7.56444,18.51975 5.7024,6.0192 14.5728,11.4048 26.2944,13.9392 1.9008,0.3168 3.8016,0.6336 5.7024,0.6336 13.4111,0 26.31755,-10.90046 36.26967,-21.70635 1.15227,2.35804 2.82673,4.60893 5.23113,7.13355 5.7024,6.0192 14.5728,11.4048 26.2944,13.9392 1.9008,0.3168 3.8016,0.6336 5.7024,0.6336 15.70977,0 30.72706,-14.95738 41.11436,-27.19906 3.46192,7.16051 13.13618,14.24001 24.78004,19.91266 3.168,1.584 6.9696,2.5344 10.4544,2.5344 13.6224,0 23.4432,-11.088 31.0464,-19.3248 19.6416,-21.5424 30.4128,-48.1536 38.6496,-81.7344 0.6336,-2.5344 1.584,-3.4848 2.8512,-3.4848 3.168,0 7.2864,0 11.7216,-0.6336 8.5536,-1.2672 15.2064,-4.1184 23.1264,-5.3856 4.752,-0.9504 4.1184,-2.5344 8.5536,-4.1184 3.168,-1.2672 5.7024,-2.5344 5.7024,-5.7024 0,-5.3856 -9.8208,-11.088 -24.7104,-11.088 -11.7216,0 -18.6912,0.9504 -23.4432,0.9504 -7.2864,0 -9.1872,-2.2176 -13.9392,-14.5728 0,0 4.752,12.3552 0,0 -0.9504,-2.5344 -1.9008,-3.8016 -4.752,-6.336 -6.6528,-5.7024 -14.8896,-7.6032 -21.5424,-7.6032 -15.84,0 -29.4624,16.1568 -38.9664,29.7792 -2.2176,3.168 -5.3856,5.7024 -7.6032,9.1872 -13.05001,19.57502 -25.54469,41.64909 -27.08566,65.44232 z M 268.264,69.696 c 7.92,0 12.3552,-0.6336 13.3056,-0.6336 0.9504,0 1.584,0.3168 1.584,1.2672 0,0.6336 -0.3168,1.584 -2.5344,6.336 -19.3248,41.5008 -32.6304,83.6352 -44.352,130.2048 -0.3168,1.2672 -1.2672,6.0192 -1.2672,10.7712 0,4.4352 1.2672,9.1872 5.7024,11.7216 8.5536,5.0688 15.5232,7.2864 20.2752,7.2864 6.9696,0 10.4544,-4.4352 10.4544,-11.7216 0,-6.336 0.3168,-12.9888 1.2672,-18.0576 8.8704,-46.5696 22.176,-83.0016 42.768,-121.0176 9.8208,-18.0576 11.088,-19.008 11.088,-20.592 0,-0.6336 -0.3168,-1.584 -0.9504,-2.5344 12.672,-2.8512 27.8784,-4.752 41.8176,-4.752 1.584,0 7.92,2.2176 8.8704,3.168 2.2176,2.2176 4.4352,4.4352 8.2368,4.4352 3.168,0 8.5536,-2.2176 10.4544,-3.4848 4.4352,-3.168 6.6528,-6.6528 6.6528,-12.3552 0,-5.3856 -19.9584,-18.6912 -33.8976,-18.6912 -17.1072,0 -32.6304,2.2176 -47.2032,5.0688 -6.336,1.2672 -29.1456,4.752 -45.6192,4.752 -15.84,0 -14.8896,-2.2176 -21.5424,-2.2176 -3.8016,0 -5.7024,1.9008 -7.2864,3.4848 -1.584,1.584 -2.5344,7.92 -2.5344,13.6224 0,2.8512 0,5.0688 1.584,6.9696 4.752,5.7024 13.9392,6.9696 23.1264,6.9696 0,0 -9.1872,0 0,0 z m 234.7488,25.6608 c 0,2.8512 -0.9504,4.752 -4.752,10.7712 -3.8016,6.0192 -2.2176,6.0192 -6.9696,12.3552 -9.1872,12.3552 -20.592,24.7104 -35.4816,38.3328 -4.1184,3.8016 -4.752,3.8016 -5.3856,3.8016 -0.3168,0 -0.9504,-0.3168 -0.9504,-0.9504 0,-0.9504 0.3168,-2.2176 3.4848,-8.8704 9.8208,-20.592 21.8592,-34.2144 35.1648,-47.52 7.2864,-7.2864 11.7216,-9.8208 13.3056,-9.8208 0.9504,0 1.584,0.3168 1.584,1.9008 0,0 0,-1.584 0,0 z m 243.6192,8.2368 c 0.3168,0 0.6336,0.3168 0.9504,0.9504 0.3168,0.9504 0.9504,1.9008 2.5344,3.168 1.2672,0.9504 1.2672,5.3856 1.2672,8.8704 0,30.7296 -17.424,56.0736 -34.5312,81.7344 -3.8016,5.7024 -6.0192,6.6528 -7.92,6.6528 -1.584,0 -4.1184,-4.1184 -5.0688,-6.6528 -1.2672,-3.4848 -1.584,-7.6032 -1.584,-9.1872 0,-24.7104 23.4432,-61.4592 38.9664,-81.7344 2.5344,-3.4848 4.4352,-3.8016 5.3856,-3.8016 0,0 -0.9504,0 0,0 z"
                     id="Type"
                     fill="#0079BF"
                     style="fill:#535353;fill-opacity:1" />
                  <g
                     id="Mark"
                     transform="translate(0,35)"
                     style="fill:#535353;fill-opacity:1">
                    <rect
                       id="Board"
                       fill="url(#linearGradient-1)"
                       x="0"
                       y="0"
                       width="200"
                       height="200"
                       rx="25"
                       style="fill:#535353;fill-opacity:1" />
                    <rect
                       id="Right-List"
                       fill="#FFFFFF"
                       x="113"
                       y="26"
                       width="61"
                       height="87.5"
                       rx="12"
                       style="fill:#535353;fill-opacity:1" />
                    <rect
                       id="Left-List"
                       fill="#FFFFFF"
                       x="26"
                       y="26"
                       width="61"
                       height="137.5"
                       rx="12"
                       style="fill:#535353;fill-opacity:1" />
                  </g>
                </g>
              </g>
            </g>
          </g>
        </g>
      </g>
    </g>
    <g
       id="g890"
       transform="matrix(0.78124998,0,0,0.78124998,50,36)">
      <g
         id="g895">
        <rect
           fill="url(#a)"
           width="256"
           height="256"
           rx="25"
           id="rect872"
           style="fill:#535353;fill-opacity:1"
           x="0"
           y="0" />
        <rect
           fill="#ffffff"
           x="144.64"
           y="33.279999"
           width="78.080002"
           height="112"
           rx="12"
           id="rect874" />
        <rect
           fill="#ffffff"
           x="33.279999"
           y="33.279999"
           width="78.080002"
           height="176"
           rx="12"
           id="rect876" />
      </g>
    </g>
  </g>
  <metadata
     id="metadata2188">
    <rdf:RDF>
      <cc:Work
         rdf:about="">
        <dc:format>image/svg+xml</dc:format>
        <dc:type
           rdf:resource="http://purl.org/dc/dcmitype/StillImage" />
        <dc:title>trello-logo-blue-flat</dc:title>
      </cc:Work>
    </rdf:RDF>
  </metadata>
  <sodipodi:namedview
     pagecolor="#ffffff"
     bordercolor="#666666"
     borderopacity="1"
     objecttolerance="10"
     gridtolerance="10"
     guidetolerance="10"
     inkscape:pageopacity="0"
     inkscape:pageshadow="2"
     inkscape:window-width="1658"
     inkscape:window-height="856"
     id="namedview2186"
     showgrid="false"
     inkscape:zoom="1.596726"
     inkscape:cx="267.01506"
     inkscape:cy="49.440824"
     inkscape:window-x="0"
     inkscape:window-y="25"
     inkscape:window-maximized="0"
     inkscape:current-layer="svg2184"
     inkscape:document-rotation="0"
     fit-margin-top="0"
     fit-margin-left="0"
     fit-margin-right="0"
     fit-margin-bottom="0" />
  <!-- Generator: Sketch 41 (35326) - http://www.bohemiancoding.com/sketch -->
  <title
     id="title2160">trello-logo-blue-flat</title>
  <desc
     id="desc2162">Created with Sketch.</desc>
  <defs
     id="defs2169">
    <linearGradient
       x1="0.5"
       y1="0"
       x2="0.5"
       y2="1"
       id="linearGradient-1">
      <stop
         stop-color="#0079BF"
         offset="0%"
         id="stop2164" />
      <stop
         stop-color="#0079BF"
         offset="100%"
         id="stop2166" />
    </linearGradient>
    <linearGradient
       x1="128"
       y1="0"
       x2="128"
       y2="256"
       id="a"
       gradientUnits="userSpaceOnUse">
      <stop
         stop-color="#0091E6"
         offset="0%"
         id="stop2784" />
      <stop
         stop-color="#0079BF"
         offset="100%"
         id="stop2786" />
    </linearGradient>
    <clipPath
       clipPathUnits="userSpaceOnUse"
       id="clipPath2832">
      <rect
         fill="#ffffff"
         x="33.279999"
         y="33.279999"
         width="78.080002"
         height="176"
         rx="11.999999"
         id="rect2834"
         style="stroke-width:1" />
    </clipPath>
    <clipPath
       clipPathUnits="userSpaceOnUse"
       id="clipPath2836">
      <rect
         fill="#ffffff"
         x="33.279999"
         y="33.279999"
         width="78.080002"
         height="176"
         rx="11.999999"
         id="rect2838"
         style="stroke-width:1" />
    </clipPath>
    <linearGradient
       x1="128"
       y1="0"
       x2="128"
       y2="256"
       id="a-7"
       gradientUnits="userSpaceOnUse">
      <stop
         stop-color="#0091E6"
         offset="0%"
         id="stop865" />
      <stop
         stop-color="#0079BF"
         offset="100%"
         id="stop867" />
    </linearGradient>
  </defs>
</svg>
