<?xml version="1.0" encoding="UTF-8" standalone="no"?>
<svg
   xmlns:dc="http://purl.org/dc/elements/1.1/"
   xmlns:cc="http://creativecommons.org/ns#"
   xmlns:rdf="http://www.w3.org/1999/02/22-rdf-syntax-ns#"
   xmlns:svg="http://www.w3.org/2000/svg"
   xmlns="http://www.w3.org/2000/svg"
   xmlns:sodipodi="http://sodipodi.sourceforge.net/DTD/sodipodi-0.dtd"
   xmlns:inkscape="http://www.inkscape.org/namespaces/inkscape"
   version="1.0"
   width="188.14815pt"
   height="229.13582pt"
   viewBox="0 0 188.14815 229.13582"
   preserveAspectRatio="xMidYMid meet"
   id="svg887"
   sodipodi:docname="waterskiing.svg"
   inkscape:version="1.0.2 (e86c8708, 2021-01-15)">
  <metadata
     id="metadata893">
    <rdf:RDF>
      <cc:Work
         rdf:about="">
        <dc:format>image/svg+xml</dc:format>
        <dc:type
           rdf:resource="http://purl.org/dc/dcmitype/StillImage" />
        <dc:title></dc:title>
      </cc:Work>
    </rdf:RDF>
  </metadata>
  <defs
     id="defs891">
    <clipPath
       clipPathUnits="userSpaceOnUse"
       id="clipPath897">
      <rect
         style="opacity:0.604502;fill:#535353;fill-opacity:1;fill-rule:evenodd;stroke-width:37.0872"
         id="rect899"
         width="1896.2963"
         height="2335.8025"
         x="9.8765459"
         y="-2538.2717"
         transform="scale(1,-1)" />
    </clipPath>
    <clipPath
       clipPathUnits="userSpaceOnUse"
       id="clipPath868">
      <rect
         style="opacity:0.604502;fill:#535353;fill-rule:evenodd;stroke-width:36.4758"
         id="rect870"
         width="1881.4816"
         height="2291.3582"
         x="17.633057"
         y="-2483.9507"
         transform="scale(1,-1)" />
    </clipPath>
  </defs>
  <sodipodi:namedview
     pagecolor="#ffffff"
     bordercolor="#666666"
     borderopacity="1"
     objecttolerance="10"
     gridtolerance="10"
     guidetolerance="10"
     inkscape:pageopacity="0"
     inkscape:pageshadow="2"
     inkscape:window-width="1920"
     inkscape:window-height="868"
     id="namedview889"
     showgrid="false"
     fit-margin-top="0"
     fit-margin-left="0"
     fit-margin-right="0"
     fit-margin-bottom="0"
     inkscape:zoom="1.51875"
     inkscape:cx="124.98226"
     inkscape:cy="144.52676"
     inkscape:window-x="0"
     inkscape:window-y="25"
     inkscape:window-maximized="0"
     inkscape:current-layer="svg887"
     inkscape:document-rotation="0" />
  <g
     transform="matrix(0.1,0,0,-0.1,-1.7633057,248.39507)"
     fill="#000000"
     stroke="none"
     id="g885"
     style="fill:#535353;fill-opacity:1"
     clip-path="url(#clipPath868)">
    <path
       d="m 1070,2795 c 0,-3 47,-164 106,-358 207,-692 212,-706 277,-722 42,-11 34,-35 -10,-35 -74,0 -113,11 -113,31 0,11 7,19 15,19 8,0 15,3 15,6 0,12 -113,359 -119,365 -10,11 -92,-97 -106,-139 -28,-81 -28,-97 -1,-123 34,-32 33,-39 -10,-72 -42,-34 -46,-80 -6,-85 51,-8 5,-57 -104,-111 C 911,1520 858,1469 757,1328 633,1155 554,975 500,738 473,619 449,594 381,611 c -8,3 -14,-8 -17,-31 -3,-23 -17,-47 -41,-72 -20,-21 -40,-38 -43,-38 -13,0 -29,50 -56,174 C 195,776 171,820 129,820 97,820 27,694 14,612 7,567 26,526 124,365 c 34,-55 65,-105 69,-111 5,-9 -15,-12 -69,-12 -42,0 -80,-4 -86,-10 -16,-16 91,-25 206,-18 125,9 128,9 196,5 30,-2 73,1 95,5 l 40,9 -40,8 c -22,4 -63,8 -91,8 -47,1 -53,4 -62,28 -19,48 -18,52 18,70 22,11 42,32 53,56 14,30 22,37 46,37 54,0 79,16 92,60 7,23 22,46 33,52 108,56 259,202 275,267 9,34 136,119 240,161 170,69 167,67 257,182 47,59 98,120 114,137 17,17 28,36 24,44 -3,8 3,21 13,28 11,8 22,22 26,32 5,14 14,17 40,12 32,-6 34,-5 57,46 14,29 44,82 68,117 23,36 42,71 42,79 0,8 23,48 51,89 49,73 79,132 79,154 0,6 -18,30 -40,54 -22,24 -40,46 -40,50 0,21 -54,75 -78,78 -39,4 -39,32 0,77 41,49 83,167 74,211 -14,75 -78,118 -158,107 -48,-6 -83,-29 -102,-66 -17,-32 -22,-126 -11,-188 6,-35 5,-44 -9,-49 -10,-4 -25,1 -36,11 -21,19 -60,17 -139,-5 -30,-9 -45,-10 -50,-2 -3,6 -49,148 -100,316 l -95,306 h -28 c -15,0 -28,-2 -28,-5 z m 129,-1065 c 12,0 21,-7 21,-15 0,-22 -88,-21 -97,1 -8,21 16,35 38,23 10,-5 27,-9 38,-9 z m 518,-63 c -2,-7 -29,-13 -65,-15 -49,-2 -62,0 -62,11 0,11 15,15 66,15 46,0 64,-3 61,-11 z"
       id="path833"
       style="fill:#535353;fill-opacity:1"
       clip-path="none" />
    <path
       d="m 283,95 c 0,-27 2,-38 4,-22 2,15 8,27 13,27 5,0 11,-12 13,-27 4,-26 4,-26 6,5 1,22 -4,32 -13,32 -8,0 -17,8 -19,18 -3,9 -5,-5 -4,-33 z"
       id="path835"
       style="fill:#535353;fill-opacity:1" />
    <path
       d="m 782,95 c 0,-27 2,-43 5,-35 3,8 13,24 22,35 15,18 15,19 -1,7 -14,-12 -17,-10 -21,15 -2,16 -4,6 -5,-22 z"
       id="path837"
       style="fill:#535353;fill-opacity:1" />
    <path
       d="m 399,119 c -8,-20 4,-62 19,-65 7,-1 8,0 2,3 -15,7 -12,43 4,43 8,0 16,-10 18,-22 2,-12 9,-23 16,-24 7,-1 8,0 2,3 -12,6 -13,40 -1,45 5,2 3,9 -5,16 -8,7 -14,8 -14,2 0,-14 -27,-13 -32,2 -3,8 -6,7 -9,-3 z"
       id="path839"
       style="fill:#535353;fill-opacity:1" />
    <path
       d="m 629,118 c -2,-25 3,-53 11,-62 5,-5 6,1 3,14 -3,12 -1,25 4,29 7,4 6,11 -3,19 -11,10 -14,10 -15,0 z"
       id="path841"
       style="fill:#535353;fill-opacity:1" />
    <path
       d="m 1165,120 c -4,-6 1,-7 11,-3 13,5 16,3 11,-10 -3,-9 -2,-19 4,-22 14,-9 -1,-27 -18,-21 -8,3 -11,1 -8,-4 9,-14 32,-12 38,3 14,38 -19,88 -38,57 z"
       id="path843"
       style="fill:#535353;fill-opacity:1" />
    <path
       d="m 1227,123 c -3,-5 -4,-21 -3,-38 1,-23 6,-30 21,-30 11,0 20,6 19,13 -1,6 -2,23 -2,37 -2,23 -25,35 -35,18 z m 23,-13 c 0,-5 -4,-10 -10,-10 -5,0 -10,5 -10,10 0,6 5,10 10,10 6,0 10,-4 10,-10 z m 2,-35 c 0,-5 -5,-11 -11,-13 -6,-2 -11,4 -11,13 0,9 5,15 11,13 6,-2 11,-8 11,-13 z"
       id="path845"
       style="fill:#535353;fill-opacity:1" />
    <path
       d="m 1287,123 c -12,-12 -7,-33 7,-33 26,0 28,-20 4,-29 -16,-7 -18,-10 -6,-10 9,-1 20,4 23,9 9,14 55,12 55,-2 0,-10 2,-10 8,0 5,7 6,27 4,44 l -5,32 -25,-30 c -16,-18 -27,-24 -30,-16 -2,6 -10,12 -18,12 -20,0 -17,18 4,23 14,4 14,5 1,6 -9,0 -19,-2 -22,-6 z m 79,-40 c -10,-10 -19,5 -10,18 6,11 8,11 12,0 2,-7 1,-15 -2,-18 z"
       id="path847"
       style="fill:#535353;fill-opacity:1" />
    <path
       d="m 1407,123 c -12,-12 -7,-33 7,-33 26,0 28,-20 4,-29 -14,-6 -17,-10 -7,-10 8,-1 20,4 26,10 14,14 6,39 -13,39 -20,0 -17,18 4,23 14,4 14,5 1,6 -9,0 -19,-2 -22,-6 z"
       id="path849"
       style="fill:#535353;fill-opacity:1" />
    <path
       d="m 1464,115 c -4,-8 -1,-22 6,-30 6,-8 9,-19 5,-25 -3,-5 -4,-10 -1,-10 10,0 33,55 29,68 -6,17 -32,15 -39,-3 z m 28,-10 c 0,-5 -5,-11 -11,-13 -6,-2 -11,4 -11,13 0,9 5,15 11,13 6,-2 11,-8 11,-13 z"
       id="path851"
       style="fill:#535353;fill-opacity:1" />
    <path
       d="m 1530,106 c -15,-29 -8,-56 15,-56 23,0 31,31 12,45 -12,9 -14,14 -5,23 7,7 8,12 2,12 -6,0 -16,-11 -24,-24 z m 22,-31 c 0,-5 -5,-11 -11,-13 -6,-2 -11,4 -11,13 0,9 5,15 11,13 6,-2 11,-8 11,-13 z"
       id="path853"
       style="fill:#535353;fill-opacity:1" />
    <path
       d="m 1585,120 c -4,-6 1,-7 11,-3 13,5 16,3 11,-10 -3,-9 -2,-19 4,-22 14,-9 -1,-27 -18,-21 -8,3 -11,1 -8,-4 10,-16 32,-12 40,8 6,16 7,16 16,0 22,-39 59,-4 44,42 -8,26 -29,25 -48,-2 l -16,-23 v 23 c -1,22 -25,31 -36,12 z m 90,-30 c 0,-13 -5,-25 -11,-27 -14,-5 -25,22 -17,42 8,23 28,12 28,-15 z"
       id="path855"
       style="fill:#535353;fill-opacity:1" />
    <path
       d="m 230,93 c 0,-10 4,-14 8,-8 4,6 11,13 16,18 5,4 2,7 -7,7 -10,0 -17,-8 -17,-17 z"
       id="path857"
       style="fill:#535353;fill-opacity:1" />
    <path
       d="m 341,83 c -1,-27 3,-33 19,-33 16,0 20,6 19,33 -2,30 -2,30 -6,5 -6,-36 -20,-36 -26,0 -4,25 -4,25 -6,-5 z"
       id="path859"
       style="fill:#535353;fill-opacity:1" />
    <path
       d="m 487,104 c -13,-13 -7,-24 14,-24 11,0 19,5 17,12 -5,14 -22,21 -31,12 z"
       id="path861"
       style="fill:#535353;fill-opacity:1" />
    <path
       d="m 541,78 c 2,-28 2,-29 6,-8 3,14 10,28 17,32 7,5 5,8 -6,8 -14,0 -18,-8 -17,-32 z"
       id="path863"
       style="fill:#535353;fill-opacity:1" />
    <path
       d="m 580,93 c 0,-10 4,-14 8,-8 4,6 11,13 16,18 5,4 2,7 -7,7 -10,0 -17,-8 -17,-17 z"
       id="path865"
       style="fill:#535353;fill-opacity:1" />
    <path
       d="m 674,95 c -8,-21 2,-45 20,-45 7,0 16,7 20,15 8,21 -3,45 -20,45 -8,0 -17,-7 -20,-15 z m 31,-15 c 0,-7 -6,-15 -12,-17 -8,-3 -13,4 -13,17 0,13 5,20 13,18 6,-3 12,-11 12,-18 z"
       id="path867"
       style="fill:#535353;fill-opacity:1" />
    <path
       d="m 734,95 c -8,-20 2,-45 18,-44 10,0 10,2 1,6 -7,2 -13,13 -13,23 0,10 6,21 13,23 9,4 9,6 -1,6 -7,1 -15,-6 -18,-14 z"
       id="path869"
       style="fill:#535353;fill-opacity:1" />
    <path
       d="m 874,95 c -8,-20 2,-45 18,-44 10,0 10,2 1,6 -7,2 -13,13 -13,23 0,10 6,21 13,23 9,4 9,6 -1,6 -7,1 -15,-6 -18,-14 z"
       id="path871"
       style="fill:#535353;fill-opacity:1" />
    <path
       d="m 927,103 c -11,-10 -8,-41 4,-49 16,-9 41,20 33,39 -6,17 -25,22 -37,10 z m 28,-23 c 0,-7 -6,-15 -12,-17 -8,-3 -13,4 -13,17 0,13 5,20 13,18 6,-3 12,-11 12,-18 z"
       id="path873"
       style="fill:#535353;fill-opacity:1" />
    <path
       d="m 981,77 c 2,-31 2,-31 6,-4 2,15 8,27 13,27 5,0 11,-12 13,-27 l 4,-28 2,28 c 0,15 5,27 10,27 5,0 12,-12 14,-27 4,-27 4,-27 6,4 1,29 -1,31 -34,31 -33,0 -35,-2 -34,-31 z"
       id="path875"
       style="fill:#535353;fill-opacity:1" />
    <path
       d="m 242,65 c -11,-12 -10,-15 3,-15 8,0 15,7 15,15 0,18 -2,18 -18,0 z"
       id="path877"
       style="fill:#535353;fill-opacity:1" />
    <path
       d="m 592,65 c -11,-12 -10,-15 3,-15 8,0 15,7 15,15 0,18 -2,18 -18,0 z"
       id="path879"
       style="fill:#535353;fill-opacity:1" />
    <path
       d="m 800,71 c 0,-5 5,-13 10,-16 6,-3 10,-2 10,4 0,5 -4,13 -10,16 -5,3 -10,2 -10,-4 z"
       id="path881"
       style="fill:#535353;fill-opacity:1" />
    <path
       d="m 488,58 c 5,-5 16,-8 23,-6 8,3 3,7 -10,11 -17,4 -21,3 -13,-5 z"
       id="path883"
       style="fill:#535353;fill-opacity:1" />
  </g>
</svg>
